<svg xmlns="http://www.w3.org/2000/svg" xmlns:xlink="http://www.w3.org/1999/xlink" viewBox="0 0 215.2305 74.70722">
  <defs>
    <style>
      .cls-1 {
        fill: none;
      }

      .cls-2 {
        fill: #262262;
      }

      .cls-3 {
        fill: #fff;
      }

      .cls-4 {
        fill: #ee3124;
      }

      .cls-5 {
        fill: #0083ca;
      }

      .cls-6 {
        clip-path: url(#clip-path);
      }
    </style>
    <clipPath id="clip-path" transform="translate(1.2305)">
      <rect class="cls-1" width="214" height="73.47618"/>
    </clipPath>
  </defs>
  <g id="Layer_2" data-name="Layer 2">
    <g id="Layer_1-2" data-name="Layer 1">
      <g>
        <rect class="cls-2" x="1.2305" width="214" height="73.47618"/>
        <path class="cls-3" d="M115.34488,18.325a.34509.34509,0,0,1-.13947-.02905.35133.35133,0,0,1-.21187-.3112A11.07163,11.07163,0,0,0,104.273,7.2636a.35152.35152,0,0,1-.25466-.5822c.11621-.13266.23562-.26261.36086-.38888a8.19161,8.19161,0,1,1,11.586,11.58338c-.12681.12628-.25622.24514-.3878.36135A.35282.35282,0,0,1,115.34488,18.325Z" transform="translate(1.2305)"/>
        <path class="cls-4" d="M16.91591,23.69822H29.94112c4.88186,0,7.75128,2.83192,7.75128,6.74562a6.22677,6.22677,0,0,1-3.429,5.85083c3.131.708,5.03194,2.83192,5.03194,6.07486,0,4.39791-3.2049,7.41687-9.16832,7.41687H16.91591ZM27.89168,33.7227a1.7938,1.7938,0,0,0,1.82541-2.012,1.7709,1.7709,0,0,0-1.82541-1.864h-3.001V33.7227Zm1.56442,9.9138a1.88068,1.88068,0,0,0,1.90147-2.04994,1.91844,1.91844,0,0,0-1.93848-2.01195H24.89068V43.6365Z" transform="translate(1.2305)"/>
        <path class="cls-4" d="M40.99084,38.38161V35.10166c0-7.08084,4.28538-11.92547,12.44773-11.92547,8.16186,0,12.44772,4.84463,12.44772,11.92547v3.27995c0,7.08192-4.28586,11.92574-12.44772,11.92574C45.27622,50.30735,40.99084,45.46353,40.99084,38.38161Zm16.73365.485V34.61772c0-3.019-1.52741-4.65891-4.28592-4.65891-2.75743,0-4.28592,1.63995-4.28592,4.65891v4.24891c0,3.01788,1.52849,4.65788,4.28592,4.65788C56.19708,43.52451,57.72449,41.88451,57.72449,38.86663Z" transform="translate(1.2305)"/>
        <path class="cls-4" d="M69.1282,23.69822h7.93836l7.99381,12.22347V23.69822h7.97477V49.7864H85.28436L77.28952,37.56163V49.7864H69.1282Z" transform="translate(1.2305)"/>
        <path class="cls-5" d="M132.68718,38.38269v-3.281c0-7.08084,4.28592-11.92547,12.44723-11.92547,8.1618,0,12.44772,4.84463,12.44772,11.92547v3.281c0,7.08084-4.28592,11.92466-12.44772,11.92466C136.9731,50.30735,132.68718,45.46353,132.68718,38.38269Zm16.7331.48394V34.61772c0-3.019-1.52741-4.65788-4.28587-4.65788-2.75694,0-4.28592,1.63892-4.28592,4.65788v4.24891c0,3.01788,1.529,4.65788,4.28592,4.65788C147.89287,43.52451,149.42028,41.88451,149.42028,38.86663Z" transform="translate(1.2305)"/>
        <path class="cls-5" d="M160.82453,23.69822h8.16186V49.7864h-8.16186Z" transform="translate(1.2305)"/>
        <path class="cls-5" d="M184.285,42.92852h-2.85091V49.7864h-8.16186V23.69822H186.82c6.63384,0,10.24874,3.95092,10.24874,9.65253a9.01529,9.01529,0,0,1-4.473,8.19881l5.1804,8.23684H188.273Zm1.603-6.44682a2.85558,2.85558,0,0,0,3.01787-3.09291c0-1.939-1.0419-3.169-3.01787-3.169h-4.45391v6.2619Z" transform="translate(1.2305)"/>
        <g class="cls-6">
          <path class="cls-3" d="M110.994,13.53978a.36181.36181,0,0,0-.35448-.32175.35237.35237,0,0,0-.34663.3297,58.976,58.976,0,0,1-54.74779,54.999c-.29534.0211-.58966.03911-.88549.056l-.19764.00952a55.91211,55.91211,0,0,1-5.64583.00844c-.19812-.00844-.39624-.019-.59069-.02851l-.28955-.019A58.82992,58.82992,0,0,1-1.2305,35.99456v6.55989A58.80327,58.80327,0,0,0,35.08137,74.70722H69.75746A58.75987,58.75987,0,0,0,110.994,13.53978Z" transform="translate(1.2305)"/>
        </g>
        <path class="cls-4" d="M97.2101,23.69822h8.1618V49.7864H97.2101Z" transform="translate(1.2305)"/>
        <path class="cls-5" d="M108.384,41.99655v-.78194h7.99646v.559c0,1.52795,1.38318,2.34684,3.19014,2.34684,1.846,0,3.22974-.66989,3.22974-2.0489a1.42186,1.42186,0,0,0-1.15335-1.454l-6.19-1.48884c-4.22884-1.00808-6.842-2.945-6.842-7.64193,0-5.32858,4.19081-8.31058,10.72532-8.31058,6.15093,0,10.26356,3.094,10.26356,8.01367v.66989h-7.76452v-.59594c0-1.081-.69213-1.8999-2.53707-1.8999-1.57714,0-2.49909.52089-2.49909,1.60191a1.19591,1.19591,0,0,0,.99965,1.267l6.9577,1.789c4.11371,1.043,6.22759,3.46595,6.22759,7.41584,0,5.14284-4.53582,8.86978-11.455,8.86978C112.88281,50.30735,108.384,47.17743,108.384,41.99655Z" transform="translate(1.2305)"/>
      </g>
    </g>
  </g>
</svg>
